<?xml version="1.0" encoding="UTF-8" standalone="no"?><!DOCTYPE svg PUBLIC "-//W3C//DTD SVG 1.1//EN" "http://www.w3.org/Graphics/SVG/1.1/DTD/svg11.dtd"><svg width="100%" height="100%" viewBox="0 0 512 510" version="1.1" xmlns="http://www.w3.org/2000/svg" xmlns:xlink="http://www.w3.org/1999/xlink" xml:space="preserve" xmlns:serif="http://www.serif.com/" style="fill-rule:evenodd;clip-rule:evenodd;stroke-linejoin:round;stroke-miterlimit:2;"><ellipse cx="255.848" cy="254.96" rx="255.848" ry="254.96" style="fill:#fff;"/><clipPath id="_clip1"><ellipse cx="255.848" cy="254.96" rx="255.848" ry="254.96"/></clipPath><g clip-path="url(#_clip1)"><clipPath id="_clip2"><rect id="instagram.svg" x="84.763" y="88.525" width="339.658" height="339.658"/></clipPath><g clip-path="url(#_clip2)"><path d="M254.592,119.107c45.376,-0 50.75,0.199 68.595,0.995c16.585,0.73 25.541,3.516 31.511,5.838c7.894,3.052 13.6,6.767 19.504,12.671c5.97,5.97 9.619,11.609 12.737,19.504c2.322,5.97 5.108,14.992 5.838,31.511c0.796,17.911 0.995,23.285 0.995,68.595c0,45.31 -0.199,50.749 -0.995,68.595c-0.73,16.585 -3.516,25.54 -5.838,31.511c-3.052,7.894 -6.767,13.6 -12.671,19.504c-5.97,5.97 -11.609,9.619 -19.504,12.737c-5.97,2.322 -14.992,5.108 -31.511,5.838c-17.911,0.796 -23.285,0.995 -68.595,0.995c-45.31,-0 -50.749,-0.199 -68.595,-0.995c-16.585,-0.73 -25.54,-3.516 -31.511,-5.838c-7.894,-3.052 -13.6,-6.767 -19.504,-12.671c-5.97,-5.97 -9.619,-11.609 -12.737,-19.504c-2.322,-5.97 -5.108,-14.992 -5.838,-31.511c-0.796,-17.912 -0.995,-23.285 -0.995,-68.595c0,-45.31 0.199,-50.75 0.995,-68.595c0.73,-16.585 3.516,-25.541 5.838,-31.511c3.052,-7.894 6.767,-13.6 12.671,-19.504c5.97,-5.97 11.609,-9.619 19.504,-12.737c5.97,-2.322 14.992,-5.108 31.511,-5.838c17.845,-0.796 23.219,-0.995 68.595,-0.995Zm-0,-30.582c-46.106,-0 -51.878,0.199 -69.988,0.995c-18.045,0.796 -30.45,3.715 -41.197,7.894c-11.211,4.378 -20.698,10.15 -30.118,19.636c-9.487,9.421 -15.258,18.907 -19.637,30.052c-4.179,10.814 -7.098,23.153 -7.894,41.197c-0.796,18.177 -0.995,23.949 -0.995,70.054c-0,46.106 0.199,51.878 0.995,69.989c0.796,18.044 3.715,30.449 7.894,41.196c4.379,11.212 10.15,20.698 19.637,30.118c9.42,9.421 18.907,15.259 30.052,19.571c10.813,4.179 23.152,7.098 41.196,7.894c18.111,0.796 23.883,0.995 69.989,0.995c46.105,0 51.877,-0.199 69.988,-0.995c18.044,-0.796 30.449,-3.715 41.196,-7.894c11.145,-4.312 20.632,-10.15 30.052,-19.571c9.42,-9.42 15.258,-18.906 19.57,-30.051c4.18,-10.814 7.099,-23.153 7.895,-41.197c0.796,-18.111 0.995,-23.882 0.995,-69.988c-0,-46.106 -0.199,-51.878 -0.995,-69.988c-0.796,-18.045 -3.715,-30.45 -7.895,-41.197c-4.179,-11.278 -9.951,-20.764 -19.437,-30.185c-9.42,-9.42 -18.907,-15.258 -30.052,-19.57c-10.813,-4.179 -23.152,-7.098 -41.197,-7.894c-18.177,-0.862 -23.948,-1.061 -70.054,-1.061Z" style="fill-rule:nonzero;"/><path d="M254.592,171.117c-48.163,0 -87.236,39.074 -87.236,87.236c-0,48.163 39.073,87.237 87.236,87.237c48.162,-0 87.236,-39.074 87.236,-87.237c0,-48.162 -39.074,-87.236 -87.236,-87.236Zm-0,143.824c-31.246,0 -56.588,-25.342 -56.588,-56.588c0,-31.245 25.342,-56.587 56.588,-56.587c31.246,-0 56.587,25.342 56.587,56.587c0,31.246 -25.341,56.588 -56.587,56.588Z" style="fill-rule:nonzero;"/><path d="M365.644,167.667c0,11.248 -9.118,20.367 -20.366,20.367c-11.248,-0 -20.366,-9.119 -20.366,-20.367c-0,-11.247 9.118,-20.366 20.366,-20.366c11.248,0 20.366,9.119 20.366,20.366Z" style="fill-rule:nonzero;"/></g></g></svg>